
<!-- Generator: visioncortex VTracer 0.6.4 -->
<svg version="1.1" xmlns="http://www.w3.org/2000/svg" viewBox="0 0 500 500" preserveAspectRatio="xMidYMid meet">
<path d="M0 0 C165 0 330 0 500 0 C500 165 500 330 500 500 C335 500 170 500 0 500 C0 335 0 170 0 0 Z " fill="#FEFEFE" transform="translate(0,0)"/>
<path d="M0 0 C4.29 0 8.58 0 13 0 C19.21 10.727 24.969 21.659 30.642 32.679 C34.251 39.674 37.941 46.612 41.75 53.5 C47.451 63.826 52.816 74.316 58.184 84.817 C63.139 94.502 68.183 104.118 73.453 113.637 C77.969 121.839 82.233 130.166 86.5 138.5 C91.225 147.729 95.981 156.926 101 166 C105.833 174.751 110.481 183.592 115.072 192.472 C115.854 193.984 116.637 195.496 117.422 197.007 C118.52 199.122 119.613 201.24 120.703 203.359 C121.037 204.001 121.371 204.643 121.714 205.304 C124 209.77 124 209.77 124 212 C124.66 212 125.32 212 126 212 C127.654 207.642 128.258 203.996 128.309 199.344 C128.334 198.073 128.359 196.802 128.385 195.492 C128.42 192.862 128.451 190.232 128.479 187.602 C128.661 178.732 129.844 170.598 132 162 C132.279 160.836 132.558 159.671 132.845 158.471 C139.676 130.791 158.228 105.812 181 89 C181.99 88.465 182.98 87.93 184 87.379 C194.343 81.763 198.053 73.027 203.117 62.79 C205.305 58.366 207.561 53.979 209.816 49.59 C210.683 47.903 211.55 46.215 212.417 44.528 C212.853 43.679 213.289 42.83 213.739 41.956 C215.056 39.387 216.369 36.817 217.681 34.246 C223.571 22.706 229.609 11.273 236 0 C240.29 0 244.58 0 249 0 C249 21.12 249 42.24 249 64 C258.24 64 267.48 64 277 64 C285.397 65.292 292.866 66.533 300.812 69.125 C301.755 69.43 302.697 69.735 303.667 70.049 C320.625 75.726 335.116 84.781 349 96 C347.68 97.65 346.36 99.3 345 101 C341.849 99.608 339.229 97.741 336.484 95.675 C310.012 75.836 281.611 71.359 249 70 C249 131.71 249 193.42 249 257 C246.69 257 244.38 257 242 257 C242 195.62 242 134.24 242 71 C222.374 76.16 222.374 76.16 204.598 83.715 C202 85 202 85 200 85 C199.772 85.803 199.544 86.606 199.309 87.434 C197.66 91.928 195.408 95.899 193.062 100.062 C187.311 110.427 181.886 120.942 176.5 131.5 C171.405 141.481 166.301 151.444 160.875 161.25 C156.16 169.825 151.491 178.425 146.93 187.083 C146.152 188.552 145.368 190.018 144.577 191.48 C138.513 202.109 138.513 202.109 138 214 C138.112 214.732 138.223 215.464 138.338 216.218 C143.892 247.78 163.356 275.084 189.273 293.34 C201.652 301.767 215.424 308.454 230 312 C231.21 312.298 232.421 312.596 233.668 312.902 C253.17 317.223 273.811 316.266 293 311 C294.151 310.687 294.151 310.687 295.326 310.367 C312.062 305.646 326.444 297.795 340 287 C343 285 343 285 345.062 285.125 C347.579 286.261 347.892 287.547 349 290 C335.255 301.235 320.788 310.091 304 316 C303.306 316.247 302.612 316.494 301.896 316.748 C268.165 328.427 232.361 324.274 200.653 309.001 C192.801 305.072 185.822 300.504 179 295 C178.417 294.539 177.833 294.077 177.232 293.602 C153.318 274.557 138.195 249.576 131 220 C129.018 222.585 127.374 225.04 126 228 C122.199 226.733 122.044 225.713 120.285 222.207 C119.77 221.196 119.256 220.186 118.726 219.145 C118.177 218.045 117.628 216.945 117.062 215.812 C115.883 213.495 114.702 211.179 113.52 208.863 C112.926 207.699 112.333 206.534 111.721 205.334 C109.316 200.675 106.791 196.086 104.25 191.5 C98.76 181.545 93.568 171.445 88.387 161.327 C84.031 152.823 79.625 144.361 75 136 C69.586 126.213 64.483 116.279 59.386 106.325 C55.03 97.822 50.625 89.361 46 81 C40.591 71.222 35.491 61.297 30.4 51.352 C24.512 39.855 18.458 28.463 12.172 17.177 C10.721 14.483 9.368 11.737 8 9 C7.67 90.84 7.34 172.68 7 257 C4.69 257 2.38 257 0 257 C0 172.19 0 87.38 0 0 Z " fill="#050505" transform="translate(87,79)"/>
<path d="M0 0 C0.33 0 0.66 0 1 0 C1 19.14 1 38.28 1 58 C-8.405 59.98 -8.405 59.98 -18 62 C-21.328 63.017 -24.471 64.003 -27.688 65.25 C-28.775 65.652 -28.775 65.652 -29.885 66.062 C-31.594 66.696 -33.298 67.346 -35 68 C-33.327 63.534 -31.213 59.355 -29.035 55.121 C-28.646 54.36 -28.256 53.599 -27.855 52.815 C-26.593 50.355 -25.328 47.896 -24.062 45.438 C-23.634 44.604 -23.206 43.771 -22.765 42.912 C-17.019 31.733 -11.186 20.621 -5.031 9.66 C-3.251 6.489 -1.596 3.269 0 0 Z " fill="#F7F7F7" transform="translate(328,86)"/>
<path d="M0 0 C0.495 0.99 0.495 0.99 1 2 C-0.013 4.404 -0.013 4.404 -1.613 7.434 C-2.197 8.548 -2.78 9.661 -3.381 10.809 C-4.025 12.019 -4.669 13.228 -5.312 14.438 C-5.965 15.678 -6.618 16.919 -7.269 18.16 C-8.573 20.64 -9.881 23.117 -11.193 25.592 C-12.702 28.438 -14.205 31.286 -15.703 34.137 C-16.88 36.377 -18.058 38.617 -19.24 40.855 C-22.687 47.389 -26.095 53.944 -29.5 60.5 C-30.601 62.617 -31.703 64.734 -32.805 66.852 C-34.859 70.801 -36.905 74.754 -38.945 78.711 C-39.838 80.432 -40.732 82.154 -41.625 83.875 C-42.227 85.052 -42.227 85.052 -42.842 86.252 C-43.216 86.971 -43.591 87.689 -43.977 88.43 C-44.457 89.361 -44.457 89.361 -44.948 90.312 C-46.097 92.156 -47.413 93.524 -49 95 C-51.211 65.762 -36.387 37.748 -18 16 C-12.501 9.975 -6.727 4.623 0 0 Z " fill="#F8F8F8" transform="translate(272,174)"/>
</svg>